<svg width="103" height="70" fill="none" xmlns="http://www.w3.org/2000/svg">
  <path d="M21.7 30c0 1.417-.5 2.642-1.5 3.675-1 1.017-2.458 1.75-4.375 2.2 1.033.283 1.817.75 2.35 1.4.533.633.8 1.367.8 2.2 0 1.317-.417 2.458-1.25 3.425-.817.967-2.017 1.717-3.6 2.25-1.583.517-3.492.775-5.725.775-.833 0-1.5-.025-2-.075-.017.467-.217.817-.6 1.05-.383.233-.875.35-1.475.35-.6 0-1.017-.133-1.25-.4-.217-.267-.308-.658-.275-1.175.15-2.333.442-4.775.875-7.325a72.111 72.111 0 011.65-7.425c.117-.417.35-.708.7-.875.35-.167.808-.25 1.375-.25 1.017 0 1.525.283 1.525.85 0 .233-.05.5-.15.8-.433 1.3-.867 3.067-1.3 5.3a62.796 62.796 0 00-.925 6.35c.8.067 1.45.1 1.95.1 2.333 0 4.042-.333 5.125-1 1.1-.683 1.65-1.55 1.65-2.6 0-.733-.317-1.35-.95-1.85-.617-.5-1.658-.775-3.125-.825-.333-.017-.567-.1-.7-.25s-.2-.392-.2-.725c0-.483.1-.875.3-1.175.2-.3.567-.458 1.1-.475 1.183-.033 2.25-.208 3.2-.525.967-.317 1.725-.758 2.275-1.325.55-.583.825-1.258.825-2.025 0-.967-.475-1.725-1.425-2.275-.95-.567-2.408-.85-4.375-.85a19.1 19.1 0 00-5.175.7c-1.667.45-3.083 1.025-4.25 1.725-.533.317-.983.475-1.35.475-.3 0-.533-.1-.7-.3-.15-.217-.225-.483-.225-.8 0-.417.083-.775.25-1.075.183-.3.608-.642 1.275-1.025 1.4-.8 3.042-1.425 4.925-1.875a24.763 24.763 0 015.775-.675c3.017 0 5.267.508 6.75 1.525C20.958 26.992 21.7 28.333 21.7 30zm7.279 16.125c-1.4 0-2.459-.383-3.175-1.15-.717-.783-1.075-1.825-1.075-3.125 0-.733.108-1.625.325-2.675l1.55-7.15a32 32 0 00.225-1.1c.133-.6.2-1.25.2-1.95 0-.4-.084-.7-.25-.9a.737.737 0 00-.625-.3c-.5 0-1.084.242-1.75.725-.667.467-1.367 1.192-2.1 2.175-.234.317-.492.475-.775.475-.234 0-.442-.108-.625-.325a1.303 1.303 0 01-.25-.775c0-.517.233-1.1.7-1.75 1.7-2.333 3.691-3.5 5.975-3.5 1.016 0 1.808.308 2.375.925.583.617.875 1.525.875 2.725 0 .85-.059 1.633-.175 2.35a49.13 49.13 0 01-.6 2.925L28.779 38.3c-.034.15-.092.417-.175.8-.084.383-.15.75-.2 1.1-.05.333-.075.667-.075 1 0 .533.15.958.45 1.275.3.317.725.475 1.275.475 1 0 2.008-.533 3.025-1.6 1.033-1.067 1.983-2.783 2.85-5.15.883-2.383 1.566-5.425 2.05-9.125.116-.85.283-1.442.5-1.775.233-.333.675-.5 1.325-.5.583 0 1.016.175 1.3.525.283.35.425.917.425 1.7 0 .45-.059 1.042-.175 1.775-.1.733-.259 1.758-.475 3.075-.45 2.55-.809 4.892-1.075 7.025-.134.967-.2 1.683-.2 2.15 0 .683.15 1.208.45 1.575.316.35.733.525 1.25.525.55 0 1.083-.183 1.6-.55.533-.367 1.158-.975 1.875-1.825.2-.233.425-.35.675-.35.216 0 .383.1.5.3.133.2.2.475.2.825 0 .65-.159 1.167-.475 1.55-.867 1.05-1.725 1.817-2.575 2.3a5.335 5.335 0 01-2.675.725c-1.384 0-2.442-.35-3.175-1.05-.734-.717-1.1-1.642-1.1-2.775 0-.633.133-1.867.4-3.7-.834 2.45-1.892 4.317-3.175 5.6-1.267 1.283-2.734 1.925-4.4 1.925zm22.116.075c-2.217 0-3.992-.417-5.325-1.25-1.333-.85-2-2.142-2-3.875 0-.917.158-1.617.475-2.1.317-.483.783-.725 1.4-.725.45 0 .817.117 1.1.35.283.233.425.533.425.9 0 .333-.025.625-.075.875a2.1 2.1 0 01-.05.35 5.302 5.302 0 00-.025.525c0 .75.375 1.308 1.125 1.675.767.367 1.833.55 3.2.55 1.417 0 2.525-.25 3.325-.75.8-.517 1.2-1.233 1.2-2.15a2.07 2.07 0 00-.55-1.45 4.305 4.305 0 00-1.375-1.025c-.55-.283-1.325-.625-2.325-1.025-1.283-.5-2.333-.975-3.15-1.425a6.754 6.754 0 01-2.075-1.825c-.567-.783-.85-1.75-.85-2.9 0-1.2.317-2.267.95-3.2.65-.933 1.575-1.658 2.775-2.175 1.217-.517 2.642-.775 4.275-.775 1.217 0 2.333.183 3.35.55 1.017.35 1.825.892 2.425 1.625.617.733.925 1.633.925 2.7 0 1.05-.158 1.842-.475 2.375-.317.533-.783.8-1.4.8-.433 0-.8-.133-1.1-.4a1.262 1.262 0 01-.425-.95c0-.317.025-.608.075-.875.05-.5.075-.817.075-.95 0-.7-.342-1.233-1.025-1.6-.683-.367-1.533-.55-2.55-.55-1.433 0-2.533.267-3.3.8-.75.517-1.125 1.25-1.125 2.2 0 .633.192 1.175.575 1.625.4.45.892.825 1.475 1.125.583.3 1.4.658 2.45 1.075 1.267.517 2.283.983 3.05 1.4a5.95 5.95 0 011.95 1.7c.55.717.825 1.6.825 2.65 0 1.967-.75 3.483-2.25 4.55-1.483 1.05-3.475 1.575-5.975 1.575zm26.513-.075c-.734 0-1.292-.2-1.675-.6-.367-.4-.55-.925-.55-1.575 0-.75.208-1.35.625-1.8.433-.45 1.033-.675 1.8-.675.733 0 1.283.183 1.65.55.383.35.575.875.575 1.575 0 .767-.217 1.383-.65 1.85-.434.45-1.025.675-1.775.675zm7.001 0c-.75 0-1.366-.342-1.85-1.025-.466-.7-.7-1.567-.7-2.6 0-1.25.084-2.392.25-3.425.167-1.05.442-2.158.825-3.325.167-.5.4-.858.7-1.075.3-.217.775-.325 1.425-.325.367 0 .617.058.75.175.15.117.225.292.225.525 0 .133-.091.583-.275 1.35-.166.617-.3 1.175-.4 1.675-.333 1.75-.5 2.917-.5 3.5 0 .35.042.6.125.75.084.133.217.2.4.2.25 0 .559-.25.925-.75.384-.5.784-1.258 1.2-2.275.434-1.017.85-2.267 1.25-3.75.134-.5.334-.858.6-1.075.284-.217.7-.325 1.25-.325.384 0 .65.05.8.15.15.083.225.25.225.5 0 .417-.208 1.558-.625 3.425-.466 2.133-.7 3.45-.7 3.95 0 .317.067.567.2.75a.64.64 0 00.525.25c.334 0 .725-.2 1.175-.6.467-.417 1.084-1.083 1.85-2 .2-.233.425-.35.675-.35.217 0 .384.1.5.3.134.2.2.475.2.825 0 .667-.158 1.183-.475 1.55-.716.883-1.491 1.608-2.325 2.175-.816.567-1.75.85-2.8.85-.8 0-1.391-.308-1.775-.925-.366-.617-.55-1.483-.55-2.6-.283 1.133-.708 2.008-1.275 2.625-.566.6-1.175.9-1.825.9zm13.648.55c-.866 0-1.533-.2-2-.6-.45-.4-.675-.85-.675-1.35 0-.433.159-.808.475-1.125.317-.317.784-.475 1.4-.475.217 0 .467.025.75.075l.675.075a3.081 3.081 0 00-.3-1.225 5.295 5.295 0 00-.65-1.1 13.556 13.556 0 00-.75-.95c-.516.983-1.033 1.8-1.55 2.45-.5.65-1.05 1.267-1.65 1.85-.3.3-.616.45-.95.45a.838.838 0 01-.65-.275 1.1 1.1 0 01-.25-.725c0-.333.117-.642.35-.925l.325-.4c.917-1.133 1.609-2.067 2.075-2.8.3-.483.6-1.058.9-1.725.317-.667.725-1.575 1.225-2.725.317-.733.975-1.1 1.975-1.1.467 0 .792.042.975.125.184.083.275.217.275.4 0 .1-.033.258-.1.475a3.562 3.562 0 01-.275.65c-.3.6-.45 1.108-.45 1.525 0 .25.084.525.25.825.184.3.459.675.825 1.125.534.7.934 1.3 1.2 1.8a3.1 3.1 0 01.425 1.6c0 .7-.166 1.367-.5 2a3.887 3.887 0 01-1.35 1.5c-.583.383-1.25.575-2 .575z" fill="#000"/>
  <path d="M72.729 40.375c.883 0 1.325.375 1.325 1.125 0 .6-.167 1.017-.5 1.25-.333.233-.858.35-1.575.35h-.525l-.1 1.325c-.05.767-.217 1.283-.5 1.55-.267.267-.708.4-1.325.4-.883 0-1.325-.542-1.325-1.625 0-.183.008-.325.025-.425l.125-1.225c-2.417 0-4.25-.008-5.5-.025-.367 0-.692-.167-.975-.5-.283-.333-.425-.767-.425-1.3 0-.317.058-.65.175-1 .733-2.133 1.833-4.558 3.3-7.275.317-.583.633-.992.95-1.225.333-.25.842-.375 1.525-.375.367 0 .642.083.825.25.2.167.3.383.3.65 0 .283-.083.567-.25.85-1.633 2.983-2.783 5.392-3.45 7.225h3.85c.2-1.55.475-3.025.825-4.425.133-.517.35-.908.65-1.175.3-.283.717-.425 1.25-.425.85 0 1.275.367 1.275 1.1 0 .217-.017.383-.05.5a78.023 78.023 0 00-.8 4.425h.9z" fill="#3B71FE"/>
</svg>
